/* XPM */
static char coin_5[] = {
/* columns rows colors chars-per-pixel */
"24 24 3 1 ",
"  c None",
"o c white",
". c black",
/* pixels */
"                        "
"                        "
"                        "
"                        "
"        oooooooo        " 
"        oooooooo        "
"      oooo......oo      "
"      oooo......oo      "
"    oooo....oooo..oo    "
"    oooo....oooo..oo    "
"    oooo..oo  oooooo    "
"    oooo..oo  oooooo    "
"    oooo..oo  oooooo    "
"    oooo..oo  oooooo    "
"    oooo....oooo..oo    "
"    oooo....oooo..oo    "
"      oooo......oo      "
"      oooo......oo      "
"        oooooooo        "
"        oooooooo        "
"                        "
"                        "
"                        "
"                        "
};