/* XPM */
static char coin_4[] = {
/* columns rows colors chars-per-pixel */
"24 24 3 1 ",
"  c None",
"o c white",
". c black",
/* pixels */
"                        "
"                        "
"                        "
"                        "
"        oooooooo        " 
"        oooooooo        "
"      oooooo..oooo      "
"      oooooo..oooo      "
"      oooooo....oo      "
"      oooooo....oo      "
"      oooooooo..oo      "
"      oooooooo..oo      "
"      oooooooo..oo      "
"      oooooooo..oo      "
"      oooooo....oo      "
"      oooooo....oo      "
"      oooooo..oooo      "
"      oooooo..oooo      "
"        oooooooo        "
"        oooooooo        "
"                        "
"                        "
"                        "
"                        "
};