/* XPM */
static char coin_6[] = {
/* columns rows colors chars-per-pixel */
"24 24 3 1 ",
"  c None",
"o c white",
". c black",
/* pixels */
"                        "
"                        "
"                        "
"                        "
"        oooooooo        " 
"        oooooooo        "
"      oo........oo      "
"      oo........oo      "
"    oo....oooo....oo    "
"    oo....oooo....oo    "
"    oo..oo    oo..oo    "
"    oo..oo    oo..oo    "
"    oo..oo    oo..oo    "
"    oo..oo    oo..oo    "
"    oo....oooo....oo    "
"    oo....oooo....oo    "
"      oo........oo      "
"      oo........oo      "
"        oooooooo        "
"        oooooooo        "
"                        "
"                        "
"                        "
"                        "
};