/* XPM */
static char wall[] = {
/* columns rows colors chars-per-pixel */
"24 24 2 1 ",
"o c white",
". c black",
/* pixels */
"oooooooooooooooooooooooo"
"o......................o"
"o......................o"
"o......................o"
"o......................o"
"o......................o"
"o......................o"
"o......................o"
"o......................o"
"o......................o"
"o......................o"
"o......................o"
"o......................o"
"o......................o"
"o......................o"
"o......................o"
"o......................o"
"o......................o"
"o......................o"
"o......................o"
"o......................o"
"o......................o"
"o......................o"
"oooooooooooooooooooooooo"
};